<?xml version="1.0" standalone="no"?>
<!DOCTYPE svg PUBLIC "-//W3C//DTD SVG 20010904//EN"
 "http://www.w3.org/TR/2001/REC-SVG-20010904/DTD/svg10.dtd">
<svg version="1.0" xmlns="http://www.w3.org/2000/svg"
 width="16.000000pt" height="16.000000pt" viewBox="0 0 16.000000 16.000000"
 preserveAspectRatio="xMidYMid meet">
<metadata>
Created by potrace 1.11, written by Peter Selinger 2001-2013
</metadata>
<g transform="translate(0.000000,16.000000) scale(0.002286,-0.002286)"
fill="#000000" stroke="none">
<path d="M3367 6169 c-428 -35 -762 -277 -854 -619 -23 -86 -23 -305 1 -409
51 -227 163 -456 350 -719 45 -62 87 -121 94 -132 12 -17 8 -20 -45 -39 -100
-37 -113 -43 -113 -54 0 -7 39 -8 118 -4 l118 7 64 -77 c36 -42 138 -151 226
-243 l162 -165 -37 -17 c-20 -10 -44 -23 -53 -30 -15 -11 -47 -3 -203 49
l-185 61 0 -208 0 -209 177 60 c98 32 183 59 190 59 7 0 29 -11 49 -25 48 -33
100 -33 148 0 20 14 42 25 49 25 7 0 92 -27 190 -59 l177 -60 0 209 0 208
-185 -61 c-156 -52 -188 -60 -203 -49 -9 7 -33 20 -53 30 l-37 17 162 165 c88
92 190 201 226 243 l64 77 118 -7 c79 -4 118 -3 118 4 0 11 -13 17 -113 54
-53 19 -57 22 -45 39 7 11 49 70 94 132 187 263 299 492 350 719 24 104 24
323 1 409 -94 349 -423 583 -872 620 -66 5 -127 9 -135 8 -8 0 -59 -4 -113 -9z
m726 -564 c177 -46 299 -179 330 -360 31 -181 -73 -379 -240 -457 -129 -61
-257 -61 -386 0 -168 78 -271 275 -240 457 44 258 291 424 536 360z m-1167
-196 c154 -28 281 -131 358 -291 39 -81 81 -206 72 -215 -2 -2 -56 6 -122 17
-312 53 -536 145 -608 248 -69 100 2 211 154 241 63 12 79 12 146 0z m513
-1065 c17 -4 31 -11 31 -16 0 -17 -109 -59 -202 -78 -96 -20 -350 -45 -383
-38 -40 8 299 107 434 127 77 12 84 12 120 5z m346 -25 c119 -25 355 -102 330
-107 -33 -7 -287 18 -383 38 -94 19 -202 61 -202 79 0 25 111 21 255 -10z"/>
<path d="M3910 5570 c-69 -15 -147 -57 -200 -110 -117 -118 -149 -292 -80
-447 l21 -48 32 80 c46 114 82 172 148 237 131 128 328 170 471 99 21 -10 38
-16 38 -14 0 3 -16 27 -35 53 -39 54 -119 112 -183 135 -57 19 -156 26 -212
15z"/>
<path d="M4344 5136 c-81 -82 -261 -154 -508 -203 l-138 -27 34 -28 c235 -197
593 -67 649 235 6 33 9 60 7 62 -2 1 -21 -16 -44 -39z"/>
<path d="M2483 3433 c18 -38 245 -505 503 -1040 258 -534 470 -971 471 -970 1
2 -473 1908 -508 2040 l-10 37 -245 0 -244 0 33 -67z"/>
<path d="M4051 3463 c-35 -132 -509 -2038 -508 -2040 1 -1 213 436 471 970
258 535 485 1002 503 1040 l33 67 -244 0 -245 0 -10 -37z"/>
<path d="M3455 3335 c-14 -13 -25 -33 -25 -45 0 -11 11 -32 25 -45 13 -14 34
-25 45 -25 12 0 32 11 45 25 14 13 25 34 25 45 0 27 -43 70 -70 70 -11 0 -32
-11 -45 -25z"/>
<path d="M3455 3125 c-14 -13 -25 -33 -25 -45 0 -11 11 -32 25 -45 13 -14 34
-25 45 -25 12 0 32 11 45 25 14 13 25 34 25 45 0 27 -43 70 -70 70 -11 0 -32
-11 -45 -25z"/>
<path d="M3455 2915 c-14 -13 -25 -33 -25 -45 0 -11 11 -32 25 -45 13 -14 34
-25 45 -25 12 0 32 11 45 25 14 13 25 34 25 45 0 27 -43 70 -70 70 -11 0 -32
-11 -45 -25z"/>
<path d="M3455 2705 c-14 -13 -25 -33 -25 -45 0 -11 11 -32 25 -45 13 -14 34
-25 45 -25 12 0 32 11 45 25 14 13 25 34 25 45 0 27 -43 70 -70 70 -11 0 -32
-11 -45 -25z"/>
<path d="M3455 2495 c-14 -13 -25 -33 -25 -45 0 -27 43 -70 70 -70 27 0 70 43
70 70 0 27 -43 70 -70 70 -11 0 -32 -11 -45 -25z"/>
</g>
</svg>
