<?xml version="1.0"?><svg width="640" height="480" xmlns="http://www.w3.org/2000/svg">
 <title>white hard hat</title>
 <g>
  <g id="svg_1">
   <g id="svg_2">
    <path d="m416.11499,400.200012c0,0 -47.807983,25.901978 -121.130005,51.562988c-44.284988,15.524994 -122.942978,-10.661011 -163.894989,-21.56601c-41.012299,-10.942993 -111.874096,-33.578003 -92.211697,-53.348999c19.663898,-19.765991 76.200703,-61.924988 76.200703,-61.924988s-53.830204,89.380981 301.035988,85.277008z" stroke-width="15.4772" stroke="#cccccc" fill="#ffff00" id="svg_3"/>
    <g id="svg_4">
     <path d="m88.873398,335.197998c0,37.696991 112.162598,68.269012 250.543594,68.269012c138.365997,0 250.507019,-30.567017 250.507019,-68.269012c-28.858032,-21.03299 -24.682007,-38.73999 -24.682007,-38.73999l-452.854004,0c0.014999,0 4.022003,17.707001 -23.514603,38.73999l0,0z" stroke-width="15.4772" stroke="#cccccc" fill="#ffff00" id="svg_5"/>
    </g>
    <g id="svg_6">
     <g id="svg_7">
      <path d="m537.689026,161.513c-5.602051,-12.850998 -27.305023,-57.237999 -71.426025,-88.4851c-79.981995,-56.715101 -179.160004,-45.895901 -237.477005,-11.851601c-39.406998,23.051201 -66.554001,52.756699 -88.062988,96.368698c-5.25,10.653 -15.035004,33.384003 -21.742004,65.904007c-5.804001,28.205994 -6.363007,45.992004 -7.297005,75.53299c0.046005,24.683014 46.633995,46.945007 126.907997,57.786011c112.341995,15.127991 248.117996,1.987 303.223984,-29.345001c15.768005,-8.960999 23.212036,-18.496002 23.18103,-27.78299c-1.163025,-38.16803 -2.565979,-81.407013 -27.307983,-138.127014z" fill="#ffff00" id="svg_8"/>
     </g>
     <g id="svg_9">
      <path d="m537.689026,161.513c-5.602051,-12.850998 -27.305023,-57.237999 -71.426025,-88.4851c-79.981995,-56.715101 -179.160004,-45.895901 -237.477005,-11.851601c-39.406998,23.051201 -66.554001,52.756699 -88.062988,96.368698c-5.25,10.653 -15.035004,33.384003 -21.742004,65.904007c-5.804001,28.205994 -6.363007,45.992004 -7.297005,75.53299c0.046005,24.683014 46.633995,46.945007 126.907997,57.786011c112.341995,15.127991 248.117996,1.987 303.223984,-29.345001c15.768005,-8.960999 23.212036,-18.496002 23.18103,-27.78299c-1.163025,-38.16803 -2.565979,-81.407013 -27.307983,-138.127014z" stroke-width="15.4772" stroke="#cccccc" fill="#ffff00" id="svg_10"/>
     </g>
    </g>
   </g>
   <g id="svg_11">
    <path d="m417.997986,399.070007c0,0 -47.822998,25.858002 -121.128998,51.559998c-44.269989,15.492981 -122.917984,-10.661011 -163.874985,-21.605011c-41.011002,-10.902985 -111.882103,-33.539001 -92.218204,-53.350983c19.662403,-19.763 76.1702,-61.899017 76.1702,-61.899017s-53.805798,89.386017 301.051987,85.295013z" stroke-width="5.1591" stroke="#000000" fill="#ffff00" id="svg_12"/>
    <g id="svg_13">
     <path d="m90.761703,334.062988c0,37.701019 112.129303,68.246002 250.522293,68.246002c138.359009,0 250.530029,-30.537994 250.530029,-68.246002c-28.875,-21.03299 -24.671021,-38.738983 -24.671021,-38.738983l-452.882004,0c0.016998,0 4.015999,17.708008 -23.499298,38.738983l0,0z" stroke-width="5.1591" stroke="#000000" fill="#ffff00" id="svg_14"/>
    </g>
    <g id="svg_15">
     <g id="svg_16">
      <path d="m539.593018,160.363007c-5.60199,-12.84201 -27.31604,-57.211006 -71.424011,-88.487007c-79.975006,-56.7136 -179.153015,-45.882 -237.478012,-11.8423c-39.431,23.052704 -66.562988,52.754303 -88.054993,96.331306c-5.259003,10.653 -15.068001,33.384995 -21.742004,65.92099c-5.786995,28.187012 -6.353996,45.988998 -7.301994,75.492996c0.032997,24.684021 46.65699,46.984009 126.941994,57.787994c112.338989,15.166016 248.100006,1.985016 303.190002,-29.346985c15.768982,-8.960999 23.228027,-18.462006 23.194031,-27.78299c-1.205017,-38.107025 -2.613037,-81.353012 -27.325012,-138.074005z" fill="#ffff00" id="svg_17"/>
     </g>
     <g id="svg_18">
      <path d="m539.593018,160.363007c-5.60199,-12.84201 -27.31604,-57.211006 -71.424011,-88.487007c-79.975006,-56.7136 -179.153015,-45.882 -237.478012,-11.8423c-39.431,23.052704 -66.562988,52.754303 -88.054993,96.331306c-5.259003,10.653 -15.068001,33.384995 -21.742004,65.92099c-5.786995,28.187012 -6.353996,45.988998 -7.301994,75.492996c0.032997,24.684021 46.65699,46.984009 126.941994,57.787994c112.338989,15.166016 248.100006,1.985016 303.190002,-29.346985c15.768982,-8.960999 23.228027,-18.462006 23.194031,-27.78299c-1.205017,-38.107025 -2.613037,-81.353012 -27.325012,-138.074005z" stroke-width="5.1591" stroke="#000000" fill="#ffff00" id="svg_19"/>
     </g>
    </g>
    <g id="svg_20">
     <g id="svg_21">
      <path d="m539.593018,160.363007c-5.60199,-12.84201 -27.31604,-57.211006 -71.424011,-88.487007c-79.975006,-56.7136 -179.153015,-45.882 -237.478012,-11.8423c-39.431,23.052704 -66.562988,52.754303 -88.054993,96.331306c-5.259003,10.653 -15.068001,33.384995 -21.742004,65.92099c-5.786995,28.187012 -6.353996,45.988998 -7.301994,75.492996c0.032997,24.684021 46.65699,46.984009 126.941994,57.787994c112.338989,15.166016 248.100006,1.985016 303.190002,-29.346985c15.768982,-8.960999 23.228027,-18.462006 23.194031,-27.78299c-1.205017,-38.107025 -2.613037,-81.353012 -27.325012,-138.074005z" fill="#ffff00" id="svg_22"/>
     </g>
    </g>
   </g>
   <g id="svg_23">
    <g id="svg_24">
     <g id="svg_25">
      <path d="m457.723999,63.371498c-168.248993,-107.877098 -339.003998,113.678505 -333.659996,255.946495l-15.652,6.348999c0.007996,-155.077988 167.134995,-383.657391 349.311996,-262.295494" fill="#ffff00" id="svg_26"/>
     </g>
     <polygon points="124.07,319.318 99.8788,348.959 108.42,325.666" fill="#ffff00" id="svg_27"/>
    </g>
    <path d="m173.854996,347.872986l0,0c-0.007996,-140.357986 83.294998,-359.048336 234.147018,-309.398487c-161.766022,-55.049398 -299.551018,146.335499 -299.551018,287.161488l-8.541298,23.292023l65.435303,22.190979l8.509995,-23.246002l0,0z" stroke-width="5.1591" stroke-linejoin="round" stroke-linecap="round" stroke="#000000" fill="#ffff00" id="svg_28"/>
    <g id="svg_29">
     <g id="svg_30">
      <path d="m173.847,347.872986l0,0l0,0l-8.531998,23.292999l38.365997,-27.039978c-5.369995,-142.303009 85.789001,-388.623806 254.053986,-280.787109c-182.187988,-121.329296 -283.887985,129.432098 -283.887985,284.534088l0,0z" fill="#ffff00" id="svg_31"/>
     </g>
     <g id="svg_32">
      <path d="m173.847,347.872986l0,0l0,0l-8.531998,23.292999l38.365997,-27.039978c-5.369995,-142.303009 85.789001,-388.623806 254.053986,-280.787109c-182.187988,-121.329296 -283.887985,129.432098 -283.887985,284.534088l0,0z" stroke-width="5.1591" stroke-linejoin="round" stroke-linecap="round" stroke="#000000" fill="#ffff00" id="svg_33"/>
     </g>
    </g>
   </g>
  </g>
  <title>Layer 1</title>
 </g>
</svg>