<?xml version="1.0" encoding="utf-8"?>
			<svg viewbox="0 0 100 100" version="1.1" baseProfile="full" width="100" height="100" xmlns="http://www.w3.org/2000/svg">
				<path d="M50,47 C0,0 100,0 50,47" fill="#212121"/>
				<path d="M52,30 C55,15 75,27 52,30" fill="#FAFAFA"/>
				<path d="M48,30 C45,15 25,27 48,30" fill="#FAFAFA"/>

				<path d="M60,40 C47,35 47,40 60,40" fill="#FAFAFA" stroke="#212121" stroke-width=".25"/>
				<path d="M40,40 C53,35 53,40 40,40" fill="#FAFAFA" stroke="#212121" stroke-width=".25"/>

		 		<circle cx="50" cy="49" r="2" fill="#212121"/>
				<path d="M48 49 L57 46 L57 52 Z" fill="#212121"/>
				<path d="M52 49 L43 46 L43 52 Z" fill="#212121"/>

		 		<circle cx="57" cy="26" r="6" stroke="#FAFAFA" stroke-width=".6" fill="none"/>

				<path d="M42 50 L49.5 80 L35 50 Z" fill="#212121"/>
				<path d="M58 50 L50.5 80 L65 50 Z" fill="#212121"/>

		 		<circle cx="50" cy="53" r="1" fill="#212121"/>
		 		<circle cx="50" cy="56" r="1" fill="#212121"/>
		 		<circle cx="50" cy="59" r="1" fill="#212121"/>
		 		<circle cx="50" cy="62" r="1" fill="#212121"/>
		 		<circle cx="50" cy="65" r="1" fill="#212121"/>
			</svg>
